<svg data-v-1084b650="" xmlns="http://www.w3.org/2000/svg" viewBox="0 0 300 300"><!----> <!----> <rect data-v-1084b650="" fill="#E5EAFE" x="0" y="0" width="300px" height="300px" class="logo-background-square"></rect> <!----> <g data-v-1084b650="" id="4d4974be-98fd-2019-006a-5f38f19c1988" fill="#22255B" transform="matrix(2.8,0,0,2.8,28.605995267629638,162.26679620742797)"><path d="M6.40 13.80L6.23 13.33L6.55 13.24L6.55 13.24Q6.89 13.16 7.04 13.02L7.04 13.02L7.04 13.02Q7.18 12.88 7.18 12.63L7.18 12.63L7.18 12.63Q7.18 12.40 7.03 11.94L7.03 11.94L6.36 9.98L3.12 9.98L2.79 11.00L2.79 11.00Q2.46 11.97 2.46 12.47L2.46 12.47L2.46 12.47Q2.46 12.95 2.66 13.33L2.66 13.33L2.79 13.58L2.52 13.80L-0.06 13.80L-0.22 13.33L0.10 13.24L0.10 13.24Q0.66 13.09 0.91 12.84L0.91 12.84L0.91 12.84Q1.16 12.59 1.39 11.94L1.39 11.94L3.58 5.61L3.58 5.61Q3.74 5.15 3.74 4.93L3.74 4.93L3.74 4.93Q3.74 4.68 3.59 4.54L3.59 4.54L3.59 4.54Q3.44 4.40 3.11 4.31L3.11 4.31L2.79 4.23L2.95 3.75L5.66 3.75L8.47 11.87L8.47 11.87Q8.69 12.52 8.96 12.85L8.96 12.85L8.96 12.85Q9.23 13.19 9.73 13.58L9.73 13.58L9.55 13.80L6.40 13.80ZM4.72 5.19L3.42 9.11L6.06 9.11L4.72 5.19ZM12.74 11.56L12.74 11.56Q12.74 12.22 12.84 12.61L12.84 12.61L12.84 12.61Q12.94 13.01 13.19 13.37L13.19 13.37L13.36 13.59L13.19 13.80L10.74 13.80L10.58 13.37L10.88 13.30L10.88 13.30Q11.23 13.22 11.35 13.00L11.35 13.00L11.35 13.00Q11.47 12.78 11.47 12.25L11.47 12.25L11.47 8.32L11.47 8.32Q11.47 8.15 11.40 8.08L11.40 8.08L11.40 8.08Q11.34 8.01 11.19 8.01L11.19 8.01L10.57 8.01L10.44 7.64L10.44 7.64Q10.85 7.28 11.38 7.04L11.38 7.04L11.38 7.04Q11.90 6.80 12.29 6.80L12.29 6.80L12.29 6.80Q12.49 6.80 12.61 6.93L12.61 6.93L12.61 6.93Q12.74 7.06 12.74 7.25L12.74 7.25L12.74 8.75L12.74 8.75Q13.10 7.84 13.83 7.25L13.83 7.25L13.83 7.25Q14.56 6.66 15.36 6.66L15.36 6.66L15.36 6.66Q16.34 6.66 16.79 7.27L16.79 7.27L16.79 7.27Q17.23 7.87 17.23 9.18L17.23 9.18L17.23 12.57L17.23 12.57Q17.23 13.05 17.65 13.05L17.65 13.05L17.65 13.05Q17.98 13.05 18.35 12.75L18.35 12.75L18.62 13.12L18.62 13.12Q18.26 13.52 17.84 13.76L17.84 13.76L17.84 13.76Q17.42 14 17.05 14L17.05 14L17.05 14Q16.48 14 16.23 13.65L16.23 13.65L16.23 13.65Q15.97 13.30 15.97 12.52L15.97 12.52L15.97 9.18L15.97 9.18Q15.97 7.76 14.77 7.76L14.77 7.76L14.77 7.76Q14.17 7.76 13.71 8.23L13.71 8.23L13.71 8.23Q13.26 8.71 13.00 9.58L13.00 9.58L13.00 9.58Q12.74 10.44 12.74 11.56L12.74 11.56ZM25.76 12.57L25.76 12.57Q25.76 13.01 26.18 13.01L26.18 13.01L26.18 13.01Q26.53 13.01 26.88 12.75L26.88 12.75L27.15 13.12L27.15 13.12Q26.78 13.52 26.36 13.76L26.36 13.76L26.36 13.76Q25.94 14 25.59 14L25.59 14L25.59 14Q25.02 14 24.77 13.65L24.77 13.65L24.77 13.65Q24.51 13.30 24.51 12.52L24.51 12.52L24.51 12.52Q23.94 13.33 23.34 13.66L23.34 13.66L23.34 13.66Q22.74 14 22.04 14L22.04 14L22.04 14Q21.36 14 20.79 13.62L20.79 13.62L20.79 13.62Q20.22 13.23 19.87 12.46L19.87 12.46L19.87 12.46Q19.53 11.69 19.53 10.60L19.53 10.60L19.53 10.60Q19.53 9.39 19.97 8.50L19.97 8.50L19.97 8.50Q20.41 7.62 21.23 7.14L21.23 7.14L21.23 7.14Q22.05 6.66 23.16 6.66L23.16 6.66L23.16 6.66Q23.88 6.66 24.49 6.85L24.49 6.85L24.49 4.37L24.49 4.37Q24.49 4.20 24.42 4.13L24.42 4.13L24.42 4.13Q24.36 4.06 24.21 4.06L24.21 4.06L23.59 4.06L23.46 3.70L23.46 3.70Q23.87 3.33 24.39 3.09L24.39 3.09L24.39 3.09Q24.92 2.86 25.31 2.86L25.31 2.86L25.31 2.86Q25.51 2.86 25.63 2.98L25.63 2.98L25.63 2.98Q25.76 3.11 25.76 3.30L25.76 3.30L25.76 12.57ZM21 10.33L21 10.33Q21 11.66 21.45 12.29L21.45 12.29L21.45 12.29Q21.91 12.92 22.60 12.92L22.60 12.92L22.60 12.92Q23.16 12.92 23.65 12.61L23.65 12.61L23.65 12.61Q24.14 12.29 24.51 11.65L24.51 11.65L24.51 7.87L24.51 7.87Q23.87 7.43 23.14 7.43L23.14 7.43L23.14 7.43Q22.12 7.43 21.56 8.20L21.56 8.20L21.56 8.20Q21 8.96 21 10.33L21 10.33ZM30.21 8.75L30.30 8.75L30.30 8.75Q30.53 7.81 31.03 7.24L31.03 7.24L31.03 7.24Q31.53 6.66 32.12 6.66L32.12 6.66L32.12 6.66Q32.70 6.66 33.09 7.05L33.09 7.05L33.09 7.05Q33.47 7.43 33.47 8.09L33.47 8.09L33.47 8.09Q33.47 8.62 33.08 8.99L33.08 8.99L33.08 8.99Q32.69 9.35 32.10 9.35L32.10 9.35L32.10 9.35Q31.84 9.35 31.84 9.20L31.84 9.20L31.84 9.20Q31.84 9.16 31.95 8.99L31.95 8.99L31.95 8.99Q32.07 8.82 32.15 8.64L32.15 8.64L32.15 8.64Q32.23 8.46 32.23 8.23L32.23 8.23L32.23 8.23Q32.23 7.98 32.09 7.83L32.09 7.83L32.09 7.83Q31.96 7.69 31.77 7.69L31.77 7.69L31.77 7.69Q31.43 7.69 31.07 8.09L31.07 8.09L31.07 8.09Q30.72 8.48 30.46 9.37L30.46 9.37L30.46 9.37Q30.21 10.26 30.21 11.62L30.21 11.62L30.21 11.62Q30.21 12.25 30.31 12.63L30.31 12.63L30.31 12.63Q30.41 13.02 30.66 13.37L30.66 13.37L30.83 13.59L30.66 13.80L28.21 13.80L28.06 13.37L28.35 13.30L28.35 13.30Q28.70 13.22 28.82 13.00L28.82 13.00L28.82 13.00Q28.94 12.78 28.94 12.25L28.94 12.25L28.94 8.32L28.94 8.32Q28.94 8.15 28.88 8.08L28.88 8.08L28.88 8.08Q28.81 8.01 28.66 8.01L28.66 8.01L28.04 8.01L27.92 7.64L27.92 7.64Q28.32 7.28 28.85 7.04L28.85 7.04L28.85 7.04Q29.37 6.80 29.76 6.80L29.76 6.80L29.76 6.80Q29.96 6.80 30.09 6.93L30.09 6.93L30.09 6.93Q30.21 7.06 30.21 7.25L30.21 7.25L30.21 8.75ZM40.10 12.75L40.10 12.75Q39.58 13.36 38.86 13.68L38.86 13.68L38.86 13.68Q38.15 14 37.32 14L37.32 14L37.32 14Q36.36 14 35.63 13.55L35.63 13.55L35.63 13.55Q34.90 13.10 34.50 12.29L34.50 12.29L34.50 12.29Q34.10 11.48 34.10 10.42L34.10 10.42L34.10 10.42Q34.10 9.30 34.55 8.45L34.55 8.45L34.55 8.45Q35 7.60 35.82 7.13L35.82 7.13L35.82 7.13Q36.64 6.66 37.73 6.66L37.73 6.66L37.73 6.66Q38.50 6.66 39.04 6.95L39.04 6.95L39.04 6.95Q39.58 7.24 39.84 7.71L39.84 7.71L39.84 7.71Q40.11 8.18 40.11 8.72L40.11 8.72L40.11 8.72Q40.11 9.31 39.79 9.86L39.79 9.86L39.79 9.86Q39.48 10.40 38.88 10.75L38.88 10.75L38.88 10.75Q38.28 11.09 37.44 11.09L37.44 11.09L37.44 11.09Q36.99 11.09 36.44 10.92L36.44 10.92L36.44 10.92Q35.90 10.75 35.90 10.43L35.90 10.43L35.90 10.43Q35.90 10.32 35.96 10.22L35.96 10.22L35.96 10.22Q36.02 10.12 36.11 10.12L36.11 10.12L36.11 10.12Q36.15 10.12 36.39 10.21L36.39 10.21L36.39 10.21Q36.62 10.30 37.00 10.30L37.00 10.30L37.00 10.30Q37.84 10.30 38.31 9.83L38.31 9.83L38.31 9.83Q38.78 9.35 38.78 8.71L38.78 8.71L38.78 8.71Q38.78 8.16 38.43 7.76L38.43 7.76L38.43 7.76Q38.08 7.36 37.45 7.36L37.45 7.36L37.45 7.36Q36.55 7.36 36.05 8.16L36.05 8.16L36.05 8.16Q35.55 8.95 35.55 10.42L35.55 10.42L35.55 10.42Q35.55 11.66 36.08 12.37L36.08 12.37L36.08 12.37Q36.61 13.08 37.62 13.08L37.62 13.08L37.62 13.08Q38.85 13.08 39.66 12.28L39.66 12.28L39.66 12.28Q39.72 12.22 39.79 12.22L39.79 12.22L39.79 12.22Q39.90 12.22 40.03 12.36L40.03 12.36L40.03 12.36Q40.15 12.49 40.15 12.63L40.15 12.63L40.15 12.63Q40.15 12.70 40.10 12.75L40.10 12.75ZM44.79 13.09L44.79 13.09Q45.23 13.09 45.58 12.61L45.58 12.61L45.58 12.61Q45.93 12.12 46.12 11.33L46.12 11.33L46.12 11.33Q46.31 10.54 46.31 9.67L46.31 9.67L46.31 9.67Q46.31 9.00 46.16 8.37L46.16 8.37L46.16 8.37Q46.00 7.74 45.70 7.25L45.70 7.25L45.56 7.03L45.72 6.85L47.36 6.66L47.36 6.66Q47.43 7.53 47.43 8.15L47.43 8.15L47.43 8.15Q47.43 8.79 47.36 9.52L47.36 9.52L47.66 11.48L47.66 11.48Q47.78 12.35 48.03 12.72L48.03 12.72L48.03 12.72Q48.29 13.09 48.78 13.09L48.78 13.09L48.78 13.09Q49.22 13.09 49.57 12.61L49.57 12.61L49.57 12.61Q49.92 12.12 50.11 11.33L50.11 11.33L50.11 11.33Q50.30 10.54 50.30 9.67L50.30 9.67L50.30 9.67Q50.30 9.00 50.15 8.37L50.15 8.37L50.15 8.37Q49.99 7.74 49.69 7.25L49.69 7.25L49.55 7.03L49.71 6.85L51.35 6.66L51.35 6.66Q51.42 7.53 51.42 8.15L51.42 8.15L51.42 8.15Q51.42 10.01 51.04 11.33L51.04 11.33L51.04 11.33Q50.67 12.66 50.04 13.33L50.04 13.33L50.04 13.33Q49.41 14 48.68 14L48.68 14L48.68 14Q47.87 14 47.41 13.60L47.41 13.60L47.41 13.60Q46.96 13.20 46.70 12.24L46.70 12.24L46.70 12.24Q46.33 13.10 45.79 13.55L45.79 13.55L45.79 13.55Q45.25 14 44.63 14L44.63 14L44.63 14Q43.90 14 43.46 13.73L43.46 13.73L43.46 13.73Q43.02 13.45 42.76 12.85L42.76 12.85L42.76 12.85Q42.49 12.24 42.34 11.14L42.34 11.14L41.90 8.18L41.90 8.18Q41.87 7.99 41.82 7.93L41.82 7.93L41.82 7.93Q41.76 7.87 41.62 7.87L41.62 7.87L41.01 7.87L40.88 7.50L40.88 7.50Q41.24 7.14 41.75 6.90L41.75 6.90L41.75 6.90Q42.25 6.66 42.64 6.66L42.64 6.66L42.64 6.66Q43.02 6.66 43.09 7.11L43.09 7.11L43.72 11.48L43.72 11.48Q43.85 12.35 44.09 12.72L44.09 12.72L44.09 12.72Q44.32 13.09 44.79 13.09L44.79 13.09ZM59.28 10.99L59.28 10.99Q59.28 11.84 59.42 12.36L59.42 12.36L59.42 12.36Q59.56 12.87 59.91 13.33L59.91 13.33L60.09 13.58L59.91 13.80L56.84 13.80L56.67 13.33L56.99 13.24L56.99 13.24Q57.53 13.10 57.71 12.84L57.71 12.84L57.71 12.84Q57.89 12.57 57.89 11.94L57.89 11.94L57.89 5.03L57.89 5.03Q57.89 4.84 57.82 4.77L57.82 4.77L57.82 4.77Q57.75 4.69 57.58 4.69L57.58 4.69L56.77 4.69L56.60 4.17L56.60 4.17Q57.20 3.93 58.19 3.74L58.19 3.74L58.19 3.74Q59.18 3.56 60.09 3.56L60.09 3.56L60.09 3.56Q62.16 3.56 63.17 4.49L63.17 4.49L63.17 4.49Q64.18 5.42 64.18 6.89L64.18 6.89L64.18 6.89Q64.18 7.80 63.81 8.53L63.81 8.53L63.81 8.53Q63.45 9.27 62.69 9.71L62.69 9.71L62.69 9.71Q61.94 10.15 60.82 10.15L60.82 10.15L60.82 10.15Q60.30 10.15 59.94 10.02L59.94 10.02L59.94 10.02Q59.58 9.90 59.58 9.66L59.58 9.66L59.58 9.66Q59.58 9.52 59.64 9.42L59.64 9.42L59.64 9.42Q59.70 9.32 59.81 9.32L59.81 9.32L59.81 9.32Q59.86 9.32 60.04 9.37L60.04 9.37L60.04 9.37Q60.21 9.42 60.49 9.42L60.49 9.42L60.49 9.42Q61.54 9.42 62.13 8.75L62.13 8.75L62.13 8.75Q62.72 8.08 62.72 6.93L62.72 6.93L62.72 6.93Q62.72 5.80 62.10 5.07L62.10 5.07L62.10 5.07Q61.47 4.34 60.34 4.34L60.34 4.34L60.34 4.34Q59.28 4.34 59.28 4.98L59.28 4.98L59.28 10.99ZM70.07 12.52L70.07 12.52Q69.50 13.33 68.89 13.66L68.89 13.66L68.89 13.66Q68.29 14 67.59 14L67.59 14L67.59 14Q66.92 14 66.35 13.62L66.35 13.62L66.35 13.62Q65.77 13.23 65.43 12.46L65.43 12.46L65.43 12.46Q65.09 11.69 65.09 10.60L65.09 10.60L65.09 10.60Q65.09 9.39 65.53 8.50L65.53 8.50L65.53 8.50Q65.97 7.62 66.79 7.14L66.79 7.14L66.79 7.14Q67.61 6.66 68.71 6.66L68.71 6.66L68.71 6.66Q69.26 6.66 70.25 6.85L70.25 6.85L70.25 6.85Q71.09 6.99 71.51 7.01L71.51 7.01L71.67 7.20L71.50 7.45L71.50 7.45Q71.40 7.59 71.36 7.71L71.36 7.71L71.36 7.71Q71.32 7.83 71.32 7.99L71.32 7.99L71.32 12.57L71.32 12.57Q71.32 13.01 71.74 13.01L71.74 13.01L71.74 13.01Q72.09 13.01 72.44 12.75L72.44 12.75L72.70 13.12L72.70 13.12Q72.34 13.52 71.92 13.76L71.92 13.76L71.92 13.76Q71.50 14 71.15 14L71.15 14L71.15 14Q70.57 14 70.32 13.65L70.32 13.65L70.32 13.65Q70.07 13.30 70.07 12.52L70.07 12.52ZM66.56 10.33L66.56 10.33Q66.56 11.66 67.01 12.29L67.01 12.29L67.01 12.29Q67.47 12.92 68.15 12.92L68.15 12.92L68.15 12.92Q68.71 12.92 69.20 12.61L69.20 12.61L69.20 12.61Q69.69 12.29 70.07 11.65L70.07 11.65L70.07 7.87L70.07 7.87Q69.43 7.43 68.70 7.43L68.70 7.43L68.70 7.43Q67.68 7.43 67.12 8.20L67.12 8.20L67.12 8.20Q66.56 8.96 66.56 10.33L66.56 10.33ZM75.77 8.75L75.85 8.75L75.85 8.75Q76.09 7.81 76.59 7.24L76.59 7.24L76.59 7.24Q77.08 6.66 77.67 6.66L77.67 6.66L77.67 6.66Q78.26 6.66 78.64 7.05L78.64 7.05L78.64 7.05Q79.03 7.43 79.03 8.09L79.03 8.09L79.03 8.09Q79.03 8.62 78.64 8.99L78.64 8.99L78.64 8.99Q78.25 9.35 77.66 9.35L77.66 9.35L77.66 9.35Q77.39 9.35 77.39 9.20L77.39 9.20L77.39 9.20Q77.39 9.16 77.51 8.99L77.51 8.99L77.51 8.99Q77.63 8.82 77.71 8.64L77.71 8.64L77.71 8.64Q77.78 8.46 77.78 8.23L77.78 8.23L77.78 8.23Q77.78 7.98 77.65 7.83L77.65 7.83L77.65 7.83Q77.52 7.69 77.32 7.69L77.32 7.69L77.32 7.69Q76.99 7.69 76.63 8.09L76.63 8.09L76.63 8.09Q76.27 8.48 76.02 9.37L76.02 9.37L76.02 9.37Q75.77 10.26 75.77 11.62L75.77 11.62L75.77 11.62Q75.77 12.25 75.87 12.63L75.87 12.63L75.87 12.63Q75.96 13.02 76.22 13.37L76.22 13.37L76.38 13.59L76.22 13.80L73.77 13.80L73.61 13.37L73.91 13.30L73.91 13.30Q74.26 13.22 74.37 13.00L74.37 13.00L74.37 13.00Q74.49 12.78 74.49 12.25L74.49 12.25L74.49 8.32L74.49 8.32Q74.49 8.15 74.43 8.08L74.43 8.08L74.43 8.08Q74.37 8.01 74.21 8.01L74.21 8.01L73.60 8.01L73.47 7.64L73.47 7.64Q73.88 7.28 74.40 7.04L74.40 7.04L74.40 7.04Q74.93 6.80 75.32 6.80L75.32 6.80L75.32 6.80Q75.52 6.80 75.64 6.93L75.64 6.93L75.64 6.93Q75.77 7.06 75.77 7.25L75.77 7.25L75.77 8.75ZM82.70 10.54L82.57 10.50L82.57 10.50Q82.31 10.43 82.31 10.21L82.31 10.21L82.31 10.21Q82.31 10.09 82.35 10.02L82.35 10.02L82.35 10.02Q82.40 9.94 82.52 9.94L82.52 9.94L82.52 9.94Q82.56 9.94 82.80 10.00L82.80 10.00L82.80 10.00Q83.03 10.07 83.41 10.07L83.41 10.07L83.41 10.07Q83.93 10.07 84.29 9.86L84.29 9.86L84.29 9.86Q84.66 9.65 84.84 9.31L84.84 9.31L84.84 9.31Q85.02 8.97 85.02 8.62L85.02 8.62L85.02 8.62Q85.02 8.20 84.78 7.92L84.78 7.92L84.78 7.92Q84.53 7.63 84.08 7.63L84.08 7.63L84.08 7.63Q83.40 7.63 82.88 8.12L82.88 8.12L82.88 8.12Q82.36 8.61 82.09 9.51L82.09 9.51L82.09 9.51Q81.82 10.40 81.82 11.56L81.82 11.56L81.82 11.56Q81.82 12.24 81.91 12.63L81.91 12.63L81.91 12.63Q82.01 13.03 82.26 13.37L82.26 13.37L82.43 13.59L82.26 13.80L79.81 13.80L79.66 13.37L79.95 13.30L79.95 13.30Q80.30 13.22 80.42 13.00L80.42 13.00L80.42 13.00Q80.54 12.78 80.54 12.25L80.54 12.25L80.54 4.37L80.54 4.37Q80.54 4.20 80.48 4.13L80.48 4.13L80.48 4.13Q80.42 4.06 80.26 4.06L80.26 4.06L79.65 4.06L79.52 3.70L79.52 3.70Q79.93 3.33 80.45 3.09L80.45 3.09L80.45 3.09Q80.98 2.86 81.37 2.86L81.37 2.86L81.37 2.86Q81.56 2.86 81.69 2.98L81.69 2.98L81.69 2.98Q81.82 3.11 81.82 3.30L81.82 3.30L81.82 8.75L81.82 8.75Q82.17 7.83 82.87 7.25L82.87 7.25L82.87 7.25Q83.58 6.66 84.35 6.66L84.35 6.66L84.35 6.66Q85.27 6.66 85.78 7.20L85.78 7.20L85.78 7.20Q86.28 7.73 86.28 8.50L86.28 8.50L86.28 8.50Q86.28 8.99 86.04 9.46L86.04 9.46L86.04 9.46Q85.79 9.93 85.32 10.26L85.32 10.26L85.32 10.26Q84.85 10.58 84.21 10.65L84.21 10.65L85.30 12.73L85.30 12.73Q85.41 12.95 85.55 13.03L85.55 13.03L85.55 13.03Q85.69 13.12 85.89 13.12L85.89 13.12L85.89 13.12Q86.07 13.12 86.27 13.02L86.27 13.02L86.27 13.02Q86.46 12.92 86.63 12.75L86.63 12.75L86.93 13.12L86.93 13.12Q86.28 14 85.43 14L85.43 14L85.43 14Q85.01 14 84.72 13.83L84.72 13.83L84.72 13.83Q84.43 13.66 84.23 13.37L84.23 13.37L84.23 13.37Q84.03 13.08 83.73 12.52L83.73 12.52L82.70 10.54Z"></path></g> <linearGradient data-v-1084b650="" gradientTransform="rotate(25)" id="aa6de75e-56d5-c8be-d512-4a0057622670" x1="0%" y1="0%" x2="100%" y2="0%"><stop data-v-1084b650="" offset="0%" style="stop-color: rgb(81, 6, 255); stop-opacity: 1;"></stop> <stop data-v-1084b650="" offset="100%" style="stop-color: rgb(97, 203, 242); stop-opacity: 1;"></stop></linearGradient> <g data-v-1084b650="" id="17efa7c1-7f6c-4473-1089-c6321a608ab4" fill="url(#aa6de75e-56d5-c8be-d512-4a0057622670)" stroke="none" transform="matrix(0.20794665527343748,0,0,0.20794665527343748,118.80800170898438,98.53320236206055)"><svg xmlns="http://www.w3.org/2000/svg" viewBox="0 0 32 32"><path fill-rule="evenodd" clip-rule="evenodd" d="M16 0L0 32h32L16 0zm0 18l-2-2-4 2 6-12 6 12-4-2-2 2z"></path></svg></g></svg>